<?xml version="1.0" encoding="utf-8"?>
<svg version="1.1" id="Layer_1"
xmlns="http://www.w3.org/2000/svg"
xmlns:xlink="http://www.w3.org/1999/xlink"
width="550px" height="400px"
xml:space="preserve">
<g id="PathID_1" transform="matrix(1.20077, 0, 0, 1.20077, 139.85, 345.8)" opacity="1">
<path style="fill:#A7A7A7;fill-opacity:1" d="M12.35 0L6.35 0L6.35 -7.15L12.35 -7.15L12.35 0" />
</g>
<g id="PathID_2" transform="matrix(1.20077, 0, 0, 1.20077, 139.85, 345.8)" opacity="1">
</g>
<g id="PathID_3" transform="matrix(1.20077, 0, 0, 1.20077, 157.65, 345.8)" opacity="1">
<path style="fill:#A7A7A7;fill-opacity:1" d="M35.8 0L29.35 0L16.9 -14.8L9.95 -14.8L9.95 0L5 0L5 -37.25L15.4 -37.25Q18.8 -37.25 21.05 -36.8Q23.3 -36.35 25.1 -35.2Q27.1 -33.95 28.25 -32Q29.4 -30.05 29.4 -27.1Q29.4 -23.05 27.35 -20.35Q25.35 -17.65 21.8 -16.25L35.8 0M24.25 -26.7Q24.25 -28.3 23.65 -29.55Q23.1 -30.8 21.8 -31.65Q20.7 -32.35 19.2 -32.65Q17.75 -32.95 15.75 -32.95L9.95 -32.95L9.95 -18.95L14.95 -18.95Q17.3 -18.95 19.05 -19.35Q20.8 -19.75 22 -20.85Q23.15 -21.9 23.7 -23.25Q24.25 -24.65 24.25 -26.7" />
</g>
<g id="PathID_4" transform="matrix(1.20077, 0, 0, 1.20077, 157.65, 345.8)" opacity="1">
</g>
<g id="PathID_5" transform="matrix(1.20077, 0, 0, 1.20077, 195.85, 345.8)" opacity="1">
<path style="fill:#A7A7A7;fill-opacity:1" d="M29.55 0L5 0L5 -37.25L29.55 -37.25L29.55 -32.85L9.95 -32.85L9.95 -22.65L29.55 -22.65L29.55 -18.25L9.95 -18.25L9.95 -4.4L29.55 -4.4L29.55 0" />
</g>
<g id="PathID_6" transform="matrix(1.20077, 0, 0, 1.20077, 195.85, 345.8)" opacity="1">
</g>
<g id="PathID_7" transform="matrix(7.50025, 0, 0, 8.23385, -25.8, 332.5)" opacity="0.6">
<path style="fill:#43E8FF;fill-opacity:1" d="M33.1 -29.8L16.25 0L5.55 0L23 -30.1L3.9 -30.1L3.9 -37.25L33.1 -37.25L33.1 -29.8" />
</g>
<g id="PathID_8" transform="matrix(7.50025, 0, 0, 8.23385, -25.8, 332.5)" opacity="0.6">
</g>
<g id="PathID_9" transform="matrix(7.50025, 0, 0, 8.23385, 231.2, 332.5)" opacity="0.6">
<path style="fill:#43E8FF;fill-opacity:1" d="M25.55 -25.85Q25.55 -27.25 24.95 -28.25Q24.4 -29.25 23 -29.8Q22.05 -30.2 20.75 -30.3Q19.45 -30.4 17.75 -30.4L14.35 -30.4L14.35 -20.4L17.25 -20.4Q19.5 -20.4 21.05 -20.6Q22.6 -20.8 23.6 -21.6Q24.6 -22.4 25.05 -23.3Q25.55 -24.25 25.55 -25.85M40.6 0L28.85 0L18.75 -13.65L14.35 -13.65L14.35 0L4.75 0L4.75 -37.25L20.85 -37.25Q24.15 -37.25 26.5 -36.85Q28.9 -36.45 30.95 -35.2Q33.05 -33.95 34.3 -31.95Q35.55 -30 35.55 -27Q35.55 -22.85 33.6 -20.25Q31.7 -17.65 28.15 -15.95L40.6 0" />
</g>
<g id="PathID_10" transform="matrix(7.50025, 0, 0, 8.23385, 231.2, 332.5)" opacity="0.6">
</g>
<g id="PathID_11" transform="matrix(7.50025, 0, 0, 8.23385, -13.15, 345.2)" opacity="0.6">
<path style="fill:#8C1AFF;fill-opacity:1" d="M33.1 -29.8L16.25 0L5.55 0L23 -30.1L3.9 -30.1L3.9 -37.25L33.1 -37.25L33.1 -29.8" />
</g>
<g id="PathID_12" transform="matrix(7.50025, 0, 0, 8.23385, -13.15, 345.2)" opacity="0.6">
</g>
<g id="PathID_13" transform="matrix(7.50025, 0, 0, 8.23385, 243.85, 345.2)" opacity="0.6">
<path style="fill:#8C1AFF;fill-opacity:1" d="M25.55 -25.85Q25.55 -27.25 24.95 -28.25Q24.4 -29.25 23 -29.8Q22.05 -30.2 20.75 -30.3Q19.45 -30.4 17.75 -30.4L14.35 -30.4L14.35 -20.4L17.25 -20.4Q19.5 -20.4 21.05 -20.6Q22.6 -20.8 23.6 -21.6Q24.6 -22.4 25.05 -23.3Q25.55 -24.25 25.55 -25.85M40.6 0L28.85 0L18.75 -13.65L14.35 -13.65L14.35 0L4.75 0L4.75 -37.25L20.85 -37.25Q24.15 -37.25 26.5 -36.85Q28.9 -36.45 30.95 -35.2Q33.05 -33.95 34.3 -31.95Q35.55 -30 35.55 -27Q35.55 -22.85 33.6 -20.25Q31.7 -17.65 28.15 -15.95L40.6 0" />
</g>
<g id="PathID_14" transform="matrix(7.50025, 0, 0, 8.23385, 243.85, 345.2)" opacity="0.6">
</g>
</svg>
